<?xml version="1.0" encoding="utf-8"?>
<!-- Generator: Adobe Illustrator 19.0.0, SVG Export Plug-In . SVG Version: 6.00 Build 0)  -->
<svg version="1.1" id="Capa_1" xmlns="http://www.w3.org/2000/svg" xmlns:xlink="http://www.w3.org/1999/xlink" x="0px" y="0px"
	 viewBox="49 216.9 709.5 361.1" style="enable-background:new 49 216.9 709.5 361.1;" xml:space="preserve">
<style type="text/css">
	.st0{fill:#C1C1C1;}
	.st1{fill:#3F2D20;}
	.st2{fill:#6DB842;}
	.st3{fill:#EF8829;}
</style>
<g>
	<path class="st0" d="M276.7,565.3h-69.2L95.9,371.1h-1.6c2.2,34.3,3.3,58.8,3.3,73.4v120.8H49V308.6h68.6l111.5,192.3h1.2
		c-1.8-33.4-2.6-56.9-2.6-70.8V308.6h49V565.3L276.7,565.3z"/>
	<path class="st0" d="M440.3,565.3h-54.4V353.9h-69.7v-45.3H510v45.3h-69.7V565.3z"/>
	<path class="st0" d="M758.5,308.6v166.1c0,19-4.2,35.6-12.7,49.9c-8.5,14.3-20.7,25.2-36.8,32.8c-16,7.6-35,11.4-56.9,11.4
		c-33,0-58.6-8.5-76.9-25.4c-18.3-16.9-27.4-40.1-27.4-69.4V308.6h54.3v157.1c0,19.8,4,34.3,11.9,43.5c8,9.2,21.1,13.9,39.5,13.9
		c17.8,0,30.7-4.7,38.7-14s12-23.9,12-43.8V308.6H758.5z"/>
</g>
<g>
	<path class="st1" d="M280.8,454.5c0.2,3.9,0.5,9.8,1,17.1c0.5,7.4,0.9,11.6,2,24.8c0.8,9,1.6,18.2,2.2,27.5
		c0.7,9.3,1.1,17.9,1.1,25.5c0,7.7-0.3,14-1,19c-0.8,5-2.1,7.5-4.2,7.4c-3.3,0-6.3-1.4-8.9-4.2c-2.7-2.8-4.8-6.2-6.6-9.9
		c-1.8-3.8-3.2-7.6-4.3-11.5c-1.1-3.9-1.6-6.8-1.9-8.6c-1.2-14.1-2.3-28.2-3.4-42.1c-1-14-1.8-28.2-2.4-42.6
		c-0.2-4.4-0.5-11.2-1-19.4c-1.1-18-2.4-33.8-4.5-58c-4-45.5-5.1-54-0.6-59.3c4.2-4.9,11.8-5.2,15.5-0.5c2.6,3.3,2.2,7.5,3.9,23
		c1.2,10.8,1.3,6.9,3.9,27.3c1.1,8.8,2,15.5,3.4,28.9c0.7,6.5,1.8,15.6,3,27.8C279.2,437.1,280.1,446.5,280.8,454.5z"/>
</g>
<g>
	<rect x="149.2" y="554.2" class="st2" width="73" height="10"/>
	<path class="st2" d="M74.8,453.2c1.3,26,9.2,49.5,22.7,67.3c9.6,9.1,21.2,15.7,34.4,20.7h96.3c37.1-13,61.1-47,66.6-88H74.8
		L74.8,453.2z M131.1,519c-1.4,2.3-3.9,3.6-6.4,3.6c-1.3,0-2.7-0.4-3.9-1.1c-20.2-12.5-34-32.4-40.2-57.7c-1-4,1.5-8.1,5.5-9.1
		s8.1,1.5,9.1,5.5c5.2,21.3,16.7,38.1,33.5,48.4C132.2,510.8,133.3,515.5,131.1,519z"/>
	<path class="st1" d="M413.3,286c-1-4-5-6.5-9.1-5.6l-179.6,43.2v-22.1l163.4-70c3.8-1.6,5.6-6.1,4-9.9c-1.6-3.8-6.1-5.6-9.9-4
		l-157.9,67.6c-1-2.9-3.8-5.1-7.1-5.1c-4.2,0-7.5,3.4-7.5,7.5v3.8l-4.6,2c-0.6-3.5-3.7-6.2-7.4-6.2c-4.2,0-7.5,3.4-7.5,7.5v5
		l-4.6,1.9c-0.6-3.5-3.7-6.2-7.4-6.2c-4.2,0-7.5,3.4-7.5,7.5v5.1l-4.5,1.9c-0.5-3.7-3.6-6.5-7.4-6.5c-4.2,0-7.5,3.4-7.5,7.5v5.4
		l-4.6,2c-0.8-3.3-3.8-5.8-7.3-5.8c-4.2,0-7.5,3.4-7.5,7.5v4.6l-20.8,8.9c-3.8,1.6-5.6,6.1-4,9.9c1.2,2.9,4,4.6,6.9,4.6
		c1,0,2-0.2,3-0.6l14.9-6.4v4.6l-14.4,3.4c-4,1-6.5,5-5.6,9.1c0.8,3.4,3.9,5.8,7.3,5.8c0.6,0,1.2-0.1,1.8-0.2l10.8-2.6v64.4H56.6
		c-4.2,0-7.5,3.4-7.5,7.5c0,28.3,6.9,54.4,20,75.4c12.9,20.9,31.8,36.4,54.7,45.2v16.8c0,4.2,3.4,7.5,7.5,7.5H229
		c4.2,0,7.5-3.4,7.5-7.5v-16.8c22.9-8.8,41.7-24.3,54.7-45.2c13.1-21,20-47.1,20-75.4c0-4.2-3.4-7.5-7.5-7.5H166.3v-72.7l4.7-1.1
		c0.9,3.1,3.8,5.4,7.2,5.4c4.2,0,7.5-3.4,7.5-7.5v-1.5l4.5-1.1c0.4,3.8,3.6,6.7,7.5,6.7c4.2,0,7.5-3.4,7.5-7.5v-2.8l4.4-1.1v14.4
		c0,4.2,3.4,7.5,7.5,7.5s7.5-3.4,7.5-7.5v-18l183.2-44C411.8,294.1,414.2,290,413.3,286z M221.3,563.1h-82.7v-7.2h82.7V563.1z
		 M131.9,540.9c-40.5-14.2-65.4-51.2-67.7-100.1h231.6c-2.3,48.9-27.2,85.9-67.7,100.1H131.9z M146.7,334.8l4.4-1.9v8.3l-4.4,1.1
		V334.8z M146.7,357.7l4.4-1.1v69.1h-4.4V357.7z M170.6,336.5l-4.4,1.1v-11.1l4.4-1.9V336.5z M190.1,331.8l-4.4,1.1v-14.8l4.4-1.9
		V331.8z M209.5,327.2l-4.4,1.1v-18.4l4.4-1.9V327.2z"/>
	<path class="st3" d="M294.9,451.2c0.1-0.9,0.2-1.8,0.3-2.7C295.1,449.4,295,450.3,294.9,451.2z"/>
	<path class="st1" d="M128.7,508.6c-16.7-10.3-28.3-27.1-33.5-48.4c-1-4-5-6.5-9.1-5.5c-4,1-6.5,5-5.5,9.1
		c6.1,25.3,20,45.2,40.2,57.7c1.2,0.8,2.6,1.1,3.9,1.1c2.5,0,5-1.3,6.4-3.6C133.3,515.5,132.2,510.8,128.7,508.6z"/>
</g>
<g>
	<path class="st1" d="M342.2,552.7c-9.9,0-17.7-2.5-23.6-7.6s-9.9-11.3-12.2-18.8c-2.3-7.5-2.9-15.6-2-24.4s3.2-16.9,6.8-24.2
		s8.3-13.4,14.2-18.2c5.9-4.8,12.8-6.9,20.8-6.4c9.3,0.5,16.9,3.3,22.8,8.4s10.1,11.3,12.8,18.8c2.7,7.5,3.8,15.4,3.4,23.8
		s-2.3,16.2-5.8,23.4s-8.3,13.2-14.6,18C358.6,550.3,351,552.7,342.2,552.7z M347.4,534.7c2.9,0.3,5.3-1.1,7.2-4.2
		c1.9-3.1,3.2-7.1,4-12s1.1-10.3,1-16.2c-0.1-5.9-0.8-11.3-2-16.4s-2.9-9.3-5-12.8s-4.7-5.2-7.6-5.2c-2.7,0-4.9,1.6-6.8,4.8
		s-3.3,7.2-4.2,12s-1.4,10.1-1.4,15.8s0.5,11.1,1.6,16s2.7,9.1,4.8,12.6C341.2,532.6,344,534.5,347.4,534.7z"/>
	<path class="st1" d="M431.4,552.7c-9.9,0-17.7-2.5-23.6-7.6c-5.8-5-9.9-11.3-12.2-18.8s-2.9-15.6-2-24.4c1-8.8,3.2-16.8,6.8-24.2
		c3.6-7.3,8.3-13.4,14.2-18.2s12.8-6.9,20.8-6.4c9.3,0.5,16.9,3.3,22.8,8.4s10.1,11.3,12.8,18.8c2.7,7.5,3.8,15.4,3.4,23.8
		s-2.3,16.2-5.8,23.4s-8.3,13.2-14.6,18C447.8,550.3,440.2,552.7,431.4,552.7z M436.6,534.7c2.9,0.3,5.3-1.1,7.2-4.2
		c1.9-3.1,3.2-7.1,4-12s1.1-10.3,1-16.2c-0.1-5.9-0.8-11.3-2-16.4s-2.9-9.3-5-12.8s-4.7-5.2-7.6-5.2c-2.7,0-4.9,1.6-6.8,4.8
		c-1.9,3.2-3.3,7.2-4.2,12s-1.4,10.1-1.4,15.8s0.5,11.1,1.6,16s2.7,9.1,4.8,12.6C430.4,532.6,433.2,534.5,436.6,534.7z"/>
	<path class="st1" d="M552.2,390.7c0-6.4,1.7-10.9,5.2-13.4s7.2-3.7,11.2-3.4c4,0.3,7.5,1.7,10.6,4.4c3.1,2.7,4.2,6.1,3.4,10.4
		c-0.5,3.2-1.3,9.3-2.4,18.2c-1.1,8.9-2.2,19.3-3.4,31s-2.2,23.9-3,36.4s-1.2,24.1-1.2,34.8s0.5,19.4,1.4,26.2s2.7,10.2,5.4,10.2
		c2.4,0,4.9-2.3,7.4-6.8s5-9.8,7.4-15.8s4.5-11.9,6.2-17.6s2.9-9.9,3.4-12.6c0.8-2.7,2.1-4.5,3.8-5.4s3.5-1.2,5.2-0.8
		c1.7,0.4,3.2,1.4,4.4,3s1.5,3.7,1,6.4c-0.5,2.7-1.7,7.9-3.6,15.6c-1.9,7.7-4.7,15.7-8.4,23.8s-8.6,15.4-14.6,21.8
		s-13.1,9.6-21.4,9.6c-6.1,0-10.9-2.5-14.2-7.4s-5.9-11.4-7.8-19.4c-2.1,5.1-5,9.6-8.6,13.6s-8.1,6.9-13.4,8.8
		c-5.9,2.1-10.9,2.4-15.2,0.8c-7.7-1.9-13.9-6.1-18.4-12.6s-7.7-14.1-9.4-22.8s-1.9-17.7-0.6-27s4.1-17.7,8.2-25.2
		s9.7-13.3,16.6-17.4c6.9-4.1,15.3-5.4,25.2-3.8c5.3,0.8,10,3.6,14,8.4c1.1-15.2,2.3-29.3,3.6-42.4
		C551.5,407.3,552.2,397.4,552.2,390.7z M543,489.5c-0.5-3.7-1.5-7.5-3-11.2s-3.7-5.9-6.6-6.4c-4.3-0.8-8.1,0.5-11.4,4
		c-3.3,3.5-6.1,7.9-8.2,13.4c-2.1,5.5-3.7,11.5-4.6,18.2s-1.2,13-0.8,19c0.4,6,1.5,11.1,3.4,15.2c1.9,4.1,4.5,6.5,8,7
		s6.7-1.1,9.8-4.8s5.7-8.5,8-14.4s3.9-12.4,5-19.6C543.7,502.7,543.8,495.9,543,489.5z"/>
	<path class="st1" d="M649.8,425.1c0.5,2.9,0.2,5.7-1,8.2s-3,4.8-5.4,6.8s-5.2,3.7-8.4,5s-6.5,2.3-10,2.8c-6.7,0.8-13.2,0.1-19.6-2
		c-6.4-2.1-10-6-10.8-11.6c-1.1-5.9,0.7-10.9,5.4-15s10.9-6.9,18.6-8.2s14.7-0.7,20.8,1.8C645.5,415.5,649,419.5,649.8,425.1z
		 M604.2,479.9c0-6.4,1.7-10.8,5-13.2c3.3-2.4,7-3.3,11-2.8s7.5,2.3,10.4,5.2s4,6.5,3.2,10.8c-1.1,4.8-2.1,10.8-3,18
		s-1.5,14.1-1.8,20.8s-0.1,12.4,0.6,17.2s2.2,7.2,4.6,7.2c1.6,0,3.5-2.1,5.8-6.2c2.3-4.1,4.5-9,6.6-14.6s4.1-11.2,6-16.8
		c1.9-5.6,3.1-9.9,3.6-12.8c0.8-2.7,2.1-4.5,4-5.4s3.7-1.2,5.4-0.8s3.2,1.4,4.4,3s1.4,3.6,0.6,6c-0.5,1.6-1.4,4.6-2.6,9
		c-1.2,4.4-2.7,9.3-4.6,14.6c-1.9,5.3-4.1,10.9-6.6,16.6s-5.5,10.8-8.8,15.2s-7,7.8-11,10.2s-8.4,2.9-13.2,1.6
		c-7.2-2.1-12.3-6.1-15.4-11.8s-4.9-12.4-5.4-20s-0.5-15.9,0.2-24.8C603.9,497.2,604.2,488.5,604.2,479.9z"/>
	<path class="st1" d="M722.6,493.1c-2.1,2.9-4.8,5.3-8,7.2s-6.7,3.4-10.4,4.6s-7.5,2.1-11.4,2.6s-7.3,0.9-10.2,1.2
		c-0.8,5.6-1.3,11.1-1.4,16.4c-0.1,5.3,0.1,10.1,0.8,14.4c0.7,4.3,1.7,7.9,3.2,10.8c1.5,2.9,3.5,4.8,6.2,5.6
		c3.5,1.1,7.2,0.5,11.2-1.8s7.9-5.4,11.6-9.4s7.3-8.7,10.8-14s6.5-10.5,9.2-15.4c2.7-4.9,4.9-9.5,6.8-13.6c1.9-4.1,3.1-7.1,3.6-9
		c0.8-2.4,2.1-4,3.8-4.8s3.4-1.1,5-0.8c1.6,0.3,2.9,1.1,4,2.6s1.3,3.4,0.8,5.8c-0.5,1.6-1.5,4.7-2.8,9.4c-1.3,4.7-3.3,9.9-5.8,15.8
		s-5.6,11.9-9.2,18.2c-3.6,6.3-7.9,12-13,17.2s-10.9,9.5-17.4,13s-13.8,5.2-21.8,5.2c-9.6,0-17.1-3.3-22.4-10
		c-5.3-6.7-8.9-15.1-10.8-25.2c-1.9-10.1-2.2-21-1-32.6s3.6-22.5,7.2-32.6c3.6-10.1,8.1-18.5,13.6-25.2s11.5-10,18.2-10
		c6.4,0,12.1,2.2,17,6.6s8.7,9.5,11.4,15.4s4.2,11.9,4.6,18C726.4,484.9,725.3,489.7,722.6,493.1z M697.8,457.5
		c-1.9,0.8-3.9,4.2-6,10.2s-4.1,13.3-6,21.8c2.9,0,5.9-0.3,8.8-1s5.1-2.1,6.4-4.2c1.1-1.6,1.7-3.9,2-7s0.2-6.2-0.2-9.4s-1.1-5.9-2-8
		C699.9,457.8,698.9,457,697.8,457.5z"/>
</g>
<g>
	<path class="st1" d="M268.2,407c-1.6,0.3-4.1,0.7-7.1,1.4c-3.1,0.8-4.7,1.1-10.3,2.6c-3.8,1.1-7.6,2-11.5,3
		c-3.9,0.8-7.3,1.5-10.3,1.5s-5.4-0.2-6.9-1.2c-1.7-0.9-2.1-2.6-1.3-5c1.2-4,2.9-7.6,5-10.9s4.2-5.9,6.3-8c2.1-2.3,4.2-3.9,6.1-5.1
		c1.9-1.4,3.2-2,4-2.2c5.9-1.6,11.7-3.1,17.6-4.4c5.8-1.3,11.6-2.5,17.4-3.3c1.8-0.2,4.4-0.6,7.9-1.5c7.4-1.6,14-3.2,24.1-5.8
		c19.1-5.3,22.9-6.6,23.2-1.2c0.3,5.1-2.5,14.4-5.6,18.9c-2.3,3.2-3.7,2.8-10.3,4.9c-4.7,1.6-3.1,1.6-12.1,5
		c-3.8,1.4-6.7,2.6-12.5,4.4c-2.8,1-6.7,2.2-11.8,3.9C275.6,404.9,271.6,405.9,268.2,407z"/>
</g>
<g>
	<path class="st1" d="M348.3,283.1c2.9-0.7,7.4-1.8,13-3.3s8.7-2.3,18.6-5.3c6.8-2,13.6-3.9,20.6-5.8s13.4-3.4,19.3-4.3
		s10.8-1.4,14.8-1.2s6.2,1.5,6.6,3.8c0.8,3.7,0.3,7.2-1.2,10.4c-1.6,3.3-3.6,6.1-6.1,8.5s-5.1,4.5-7.9,6.1c-2.7,1.6-4.8,2.7-6.2,3.1
		c-10.6,3.1-21.1,6.1-31.6,8.8c-10.5,2.8-21.2,5.4-32.1,7.9c-3.3,0.8-8.5,2-14.6,3.5c-13.5,3.4-25.4,6.8-43.4,12.2
		c-33.9,10-40.2,12.3-45.3,7.9c-4.7-4.1-6.5-12.5-3.8-17.2c1.9-3.4,5.3-3.3,16.8-7c8-2.7,5.1-2.2,20.1-7.7
		c6.5-2.3,11.5-4.1,21.3-7.3c4.8-1.6,11.6-3.9,20.6-6.8C335.4,287.1,342.5,284.9,348.3,283.1z"/>
</g>
</svg>
